/* XPM */
static char *result[] = {
/* columns rows colors chars-per-pixel */
"32 32 113 2 ",
"   c black",
".  c #6D3801",
"X  c #8B3D05",
"o  c #903E00",
"O  c #854808",
"+  c #8D4C0B",
"@  c #954F06",
"#  c #92500F",
"$  c #9D500C",
"%  c #AE5201",
"&  c #A65709",
"*  c #B95D06",
"=  c #BC640D",
"-  c #AC6215",
";  c #A86B19",
":  c #B36516",
">  c #C35502",
",  c #C95C07",
"<  c #D55D03",
"1  c #D95E01",
"2  c #C7690B",
"3  c #D66106",
"4  c #DA6203",
"5  c #DD6C07",
"6  c #D7620A",
"7  c #D96408",
"8  c #DC6D08",
"9  c #DE730D",
"0  c #D0790E",
"q  c #DA7D0F",
"w  c #C77116",
"e  c #CA771A",
"r  c #DA741B",
"t  c #DE791A",
"y  c #E16706",
"u  c #E76F07",
"i  c #ED6E0B",
"p  c #E77007",
"a  c #EF7407",
"s  c #E1730A",
"d  c #EA7409",
"f  c #E47C0D",
"g  c #EE7A0C",
"h  c #FC7707",
"j  c #F67F06",
"k  c #F27608",
"l  c #F27E0C",
"z  c #E47F13",
"x  c #EA7F11",
"c  c #AF943E",
"v  c #D88118",
"b  c #E7810E",
"n  c #EA850C",
"m  c #F5830D",
"M  c #FB840D",
"N  c #FD8C0E",
"B  c #E68210",
"V  c #EB8211",
"C  c #EC8C13",
"Z  c #F38410",
"A  c #FC8610",
"S  c #F68C12",
"D  c #FC8C11",
"F  c #EF9414",
"G  c #F29414",
"H  c #FD9313",
"J  c #F49B16",
"K  c #FD9D15",
"L  c #F6911A",
"P  c #F69D18",
"I  c #FD9C1A",
"U  c #FCA415",
"Y  c #F6A31A",
"T  c #FAA619",
"R  c #F6AA1C",
"E  c #FBAA1B",
"W  c #FEB11D",
"Q  c #CBA63E",
"!  c #CEA93E",
"~  c #D2AA3D",
"^  c #F9AE25",
"/  c #FFAC2E",
"(  c #FAB12C",
")  c #FCA832",
"_  c #FCB732",
"`  c #F0BB3E",
"'  c #FBBC3A",
"]  c #E7A346",
"[  c #ECA946",
"{  c #FBB245",
"}  c #F2BA43",
"|  c #F9B54E",
" . c #FDC642",
".. c #FDC947",
"X. c #F5C94B",
"o. c #FBCB4A",
"O. c #FFD147",
"+. c #FFD349",
"@. c #FACE5A",
"#. c #FDD659",
"$. c #F1C364",
"%. c #F0CC6F",
"&. c #FFD56A",
"*. c #FBDA6A",
"=. c #F1D177",
"-. c #FCDD75",
";. c #FADC7A",
":. c #FCE37B",
">. c #FDE986",
",. c #FCEC8B",
"<. c #FEF496",
"1. c #FFFD99",
"2. c none",
/* pixels */
"2.2.2.2.2.2.2.2.2.2.2.2.2.2.2.2.2.2.2.2.2.2.2.2.2.2.2.2.2.2.2.2.",
"2.2.2.2.2.2.2.2.2.2.2.2.2.2.          2.2.2.2.2.2.2.2.2.2.2.2.2.",
"2.2.2.2.2.2.2.2.2.2.2.2.2.  & $ X X o   2.2.2.2.2.2.2.2.2.2.2.2.",
"2.2.2.2.2.2.2.2.2.2.2.2.  q U H m a h %   2.2.2.2.2.2.2.2.2.2.2.",
"2.2.2.2.2.2.2.2.2.2.2.  S T Y E E S S I v   2.2.2.2.2.2.2.2.2.2.",
"2.2.2.2.2.2.2.2.2.2.  H Y T E E Y U ' o.o.X.  2.2.2.2.2.2.2.2.2.",
"2.2.2.2.2.2.2.2.2.  V T E f 7 5 8 E W P A L z   2.2.2.2.2.2.2.2.",
"2.2.2.2.2.2.2.2.  0 U Y B g p p d f G ' | m N =   2.2.2.2.2.2.2.",
"2.2.2.2.2.2.2.  2 U R T < g H H M < n #.:.M m H @   2.2.2.2.2.2.",
"2.2.2.2.2.2.2.  = K T J 5 l K T m 5 m o.;.M m H #   2.2.2.2.2.2.",
"2.2.2.2.2.2.2.  = K F 1 l I E T T D y ] -.j m N +   2.2.2.2.2.2.",
"2.2.2.2.2.2.  w G E J 7 m K E T U S 1 ] 1.;. .' ` c   2.2.2.2.2.",
"2.2.2.2.2.2.  Z T G s 1 l U U ^ @.M 4 r [ X.o.o.+.~   2.2.2.2.2.",
"2.2.2.2.2.2.  x T B < f S K ^ @.,.{ V 1 5 U  ...+.Q   2.2.2.2.2.",
"2.2.2.2.2.2.  x U b u W E Y #.<.>.,.) u 9 E  ...+.Q   2.2.2.2.2.",
"2.2.2.2.2.2.  V E b 8 E U *.,.,.>.^ H p 8 E  ...+.Q   2.2.2.2.2.",
"2.2.2.2.2.2.  V U b 5 U *.>.<.:.( E H p 8 E  .o.O.!   2.2.2.2.2.",
"2.2.2.2.2.2.  g E b t *.,.<.-._ U Y H p 8 E  .o.O.Q   2.2.2.2.2.",
"2.2.2.2.2.2.  x U b r %.,.:.' K E E S 4 8 E  ...O.Q   2.2.2.2.2.",
"2.2.2.2.2.2.  x E F 6 3 ;.( U R U E s < f E  ...O.Q   2.2.2.2.2.",
"2.2.2.2.2.2.  l &.<.$.4 Y R T T T E s f E E ..o.+.!   2.2.2.2.2.",
"2.2.2.2.2.2.2.  e &.=.< E E T T T W 8 f U S L I ;   2.2.2.2.2.2.",
"2.2.2.2.2.2.2.  * / } n V P E T Y b b J U A m D +   2.2.2.2.2.2.",
"2.2.2.2.2.2.2.  2 K T T < G E T E < G W K g g M +   2.2.2.2.2.2.",
"2.2.2.2.2.2.2.  : J T T 8 C U Y P 8 G E F < < 3   2.2.2.2.2.2.2.",
"2.2.2.2.2.2.2.2.  O I Y T s < 4 4 P E C < < i   2.2.2.2.2.2.2.2.",
"2.2.2.2.2.2.2.2.2.  . K E P G P F E K m l A   2.2.2.2.2.2.2.2.2.",
"2.2.2.2.2.2.2.2.2.2.  O J T E E E C s k 8   2.2.2.2.2.2.2.2.2.2.",
"2.2.2.2.2.2.2.2.2.2.2.  - C U K F 4 1 >   2.2.2.2.2.2.2.2.2.2.2.",
"2.2.2.2.2.2.2.2.2.2.2.2.  : Z 9 , , 7   2.2.2.2.2.2.2.2.2.2.2.2.",
"2.2.2.2.2.2.2.2.2.2.2.2.2.            2.2.2.2.2.2.2.2.2.2.2.2.2.",
"2.2.2.2.2.2.2.2.2.2.2.2.2.2.2.2.2.2.2.2.2.2.2.2.2.2.2.2.2.2.2.2."
};
