/* XPM */
static char *result[] = {
/* columns rows colors chars-per-pixel */
"32 32 132 2 ",
"   c black",
".  c #642C04",
"X  c #713B08",
"o  c #734C0F",
"O  c #704F19",
"+  c #73541C",
"@  c #75581D",
"#  c #6D5920",
"$  c #745A20",
"%  c #755A20",
"&  c #745C22",
"*  c #745D22",
"=  c #755C23",
"-  c #735D24",
";  c #6F602A",
":  c #766335",
">  c #736B3E",
",  c #736A3F",
"<  c #736B3F",
"1  c #74693D",
"2  c #736A40",
"3  c #746A40",
"4  c #746B40",
"5  c #746B41",
"6  c #736A52",
"7  c #873C03",
"8  c #974F09",
"9  c #9A6812",
"0  c #946A1E",
"q  c #9B7323",
"w  c #9B7926",
"e  c #9C7C2B",
"r  c #9B7D2C",
"t  c #9B7E2F",
"y  c #9B7F2F",
"u  c #D55E02",
"i  c #D55F02",
"p  c #E76603",
"a  c #EA6704",
"s  c #F37F0B",
"d  c #9C802E",
"f  c #9C8031",
"g  c #998235",
"h  c #F4800D",
"j  c #FF8A0D",
"k  c #FF8C0E",
"l  c #F7A61A",
"z  c #F7A61B",
"x  c #FFB31D",
"c  c #FFB51E",
"v  c #EDA52C",
"b  c #FFB331",
"n  c #FFB533",
"m  c #F9B637",
"M  c #F9B638",
"N  c #F9C13C",
"B  c #FFC63C",
"V  c #FFC83D",
"C  c #9C8545",
"Z  c #9D8A40",
"A  c #9B9152",
"S  c #9B9256",
"D  c #9B9257",
"F  c #9B9357",
"G  c #9C9257",
"H  c #9B916F",
"J  c #BFB76F",
"K  c #BFB770",
"L  c #C7BE70",
"P  c #FCC643",
"I  c #FCC743",
"U  c #FCC744",
"Y  c #FAC949",
"T  c #FBC949",
"R  c #FBCA48",
"E  c #FCC949",
"W  c #FCCB49",
"Q  c #F9CB4C",
"!  c #FACB4C",
"~  c #FFD141",
"^  c #FFD242",
"/  c #FFD749",
"(  c #FFD74A",
")  c #FFD94B",
"_  c #FFDA4D",
"`  c #FFDB4E",
"'  c #FFDA4F",
"]  c #FFDC4E",
"[  c #FFDD51",
"{  c #FFDE50",
"}  c #FFDC53",
"|  c #FFDF55",
" . c #FFDB5D",
".. c #C8C273",
"X. c #CEC377",
"o. c #CDC378",
"O. c #D6CD79",
"+. c #D9CF7C",
"@. c #F8D36D",
"#. c #FFEF67",
"$. c #FFF168",
"%. c #FFE575",
"&. c #FFE870",
"*. c #FFE678",
"=. c #FFFD7B",
"-. c #FFFF7C",
";. c #FAE685",
":. c #FBE685",
">. c #FAE886",
",. c #FBE989",
"<. c #FBEA89",
"1. c #FBEA8A",
"2. c #FCEA89",
"3. c #FCEA8A",
"4. c #FCEB8B",
"5. c #FFF98E",
"6. c #FFFC90",
"7. c #FFFC92",
"8. c #FFFF93",
"9. c #FFFD94",
"0. c #FFFD95",
"q. c #FFFE95",
"w. c #FFFE96",
"e. c #FFFF96",
"r. c #FFFF97",
"t. c #F9E8AF",
"y. c #F8E8B0",
"u. c #FFFCBD",
"i. c #FFFFC0",
"p. c #FDFDFD",
"a. c #FEFEFE",
"s. c none",
/* pixels */
"s.s.s.s.s.s.s.s.s.s.s.s.s.s.s.s.s.s.s.s.s.s.s.s.s.s.s.s.s.s.s.s.",
"s.s.s.s.s.s.s.s.s.s.s.s.s.s.        s.s.s.s.s.s.s.s.s.s.s.s.s.s.",
"s.s.s.s.s.s.s.s.s.s.s.s.s.  +.X.o.O.  s.s.s.s.s.s.s.s.s.s.s.s.s.",
"s.s.s.s.s.s.s.s.s.s.s.s.  # $. . .#.g   s.s.s.s.s.s.s.s.s.s.s.s.",
"s.s.s.s.s.s.s.s.s.s.s.s.  : *.@.@.%.C   s.s.s.s.s.s.s.s.s.s.s.s.",
"s.s.s.s.s.s.s.s.s.s.s.s.  6 i.y.t.u.H   s.s.s.s.s.s.s.s.s.s.s.s.",
"s.s.s.s.s.s.s.s.s.s.s.s.  o c l z x 9   s.s.s.s.s.s.s.s.s.s.s.s.",
"s.s.s.s.s.s.s.s.s.s.s.s.  @ ^ N N ~ w   s.s.s.s.s.s.s.s.s.s.s.s.",
"s.s.s.s.s.s.s.s.s.s.s.s.  = [ T E ` t   s.s.s.s.s.s.s.s.s.s.s.s.",
"s.s.s.s.s.s.s.s.s.s.s.s.  % _ U I ( r   s.s.s.s.s.s.s.s.s.s.s.s.",
"s.s.s.s.s.s.s.s.s.s.s.s.  - | ! Q } f   s.s.s.s.s.s.s.s.s.s.s.s.",
"s.s.s.s.s.s.s.s.s.s.s.s.  < 8.>.>.7.S   s.s.s.s.s.s.s.s.s.s.s.s.",
"s.s.s.s.s.s.s.s.s.s.s.s.  3 e.3.3.q.F   s.s.s.s.s.s.s.s.s.s.s.s.",
"s.s.s.s.s.s.s.s.s.s.s.s.  3 e.,.2.9.F   s.s.s.s.s.s.s.s.s.s.s.s.",
"s.s.s.s.s.s.s.s.s.s.s.s.  4 e.,.2.0.F   s.s.s.s.s.s.s.s.s.s.s.s.",
"s.s.s.s.s.s.s.s.s.s.s.s.  5 e.<.2.0.G   s.s.s.s.s.s.s.s.s.s.s.s.",
"s.s.s.s.s.s.s.s.s.s.s.s.  4 e.1.2.0.G   s.s.s.s.s.s.s.s.s.s.s.s.",
"s.s.s.s.s.s.s.s.s.s.s.s.  2 e.<.2.0.S   s.s.s.s.s.s.s.s.s.s.s.s.",
"s.s.s.s.s.s.s.s.s.s.s.s.  , e.,.2.9.S   s.s.s.s.s.s.s.s.s.s.s.s.",
"s.s.s.s.s.s.s.s.s.s.s.s.  > r.1.4.w.D   s.s.s.s.s.s.s.s.s.s.s.s.",
"s.s.s.s.s.s.s.s.s.s.s.s.  1 6.;.:.5.A   s.s.s.s.s.s.s.s.s.s.s.s.",
"s.s.s.s.s.s.s.s.s.s.s.s.  & [ Y Y ' y   s.s.s.s.s.s.s.s.s.s.s.s.",
"s.s.s.s.s.s.s.s.s.s.s.s.  $ ) P I / e   s.s.s.s.s.s.s.s.s.s.s.s.",
"s.s.s.s.s.s.s.s.s.s.s.s.  * { R W ] d   s.s.s.s.s.s.s.s.s.s.s.s.",
"s.s.s.s.s.s.s.s.s.s.s.s.  + V m M B q   s.s.s.s.s.s.s.s.s.s.s.s.",
"s.s.s.s.s.s.s.s.s.s.s.s.  X k s h j 8   s.s.s.s.s.s.s.s.s.s.s.s.",
"s.s.s.s.s.s.s.s.s.s.s.s.  . a u i p 7   s.s.s.s.s.s.s.s.s.s.s.s.",
"s.s.s.s.s.s.s.s.s.s.s.s.  O n v v b 0   s.s.s.s.s.s.s.s.s.s.s.s.",
"s.s.s.s.s.s.s.s.s.s.s.s.  ; -.&.&.=.Z   s.s.s.s.s.s.s.s.s.s.s.s.",
"s.s.s.s.s.s.s.s.s.s.s.s.s.  ..J K L   s.s.s.s.s.s.s.s.s.s.s.s.s.",
"s.s.s.s.s.s.s.s.s.s.s.s.s.s.        s.s.s.s.s.s.s.s.s.s.s.s.s.s.",
"s.s.s.s.s.s.s.s.s.s.s.s.s.s.s.s.s.s.s.s.s.s.s.s.s.s.s.s.s.s.s.s."
};
