/* XPM */
static char *result[] = {
/* columns rows colors chars-per-pixel */
"32 32 127 2 ",
"   c black",
".  c #7D631F",
"X  c #914C07",
"o  c #945004",
"O  c #985007",
"+  c #93500E",
"@  c #A1550C",
"#  c #A65909",
"$  c #AC5E0B",
"%  c #AC610F",
"&  c #B5671A",
"*  c #836B25",
"=  c #81692A",
"-  c #87722A",
";  c #937E3E",
":  c #A16B26",
">  c #C05B07",
",  c #D65E00",
"<  c #DB6404",
"1  c #DC6A05",
"2  c #D76408",
"3  c #D86709",
"4  c #DB6B09",
"5  c #CC720D",
"6  c #DD7007",
"7  c #D3720F",
"8  c #DF7309",
"9  c #D57A0D",
"0  c #CA6D11",
"q  c #CE7011",
"w  c #D27414",
"e  c #DE7717",
"r  c #E36C07",
"t  c #ED6E04",
"y  c #E56E08",
"u  c #E67007",
"i  c #E4750B",
"p  c #EA7509",
"a  c #E47D0D",
"s  c #E67D11",
"d  c #E97F12",
"f  c #EC8407",
"g  c #ED8A0C",
"h  c #F7840E",
"j  c #F8850E",
"k  c #FB890F",
"l  c #FD950E",
"z  c #F99E0F",
"x  c #E88410",
"c  c #EC8D12",
"v  c #F58612",
"b  c #F98611",
"n  c #F58B15",
"m  c #FC8A11",
"M  c #F19512",
"N  c #FA9313",
"B  c #F59D16",
"V  c #FF9D14",
"C  c #FE9F18",
"Z  c #FAA00F",
"A  c #F7A216",
"S  c #FBA415",
"D  c #FBA817",
"F  c #F6A61A",
"G  c #FAA619",
"H  c #F5A91B",
"J  c #FBAA1B",
"K  c #FFB01C",
"L  c #E28221",
"P  c #E48B29",
"I  c #E89B34",
"U  c #D2AA3A",
"Y  c #FCAB22",
"T  c #FFAE2D",
"R  c #FCB222",
"E  c #FAB42B",
"W  c #FAA631",
"Q  c #FDB435",
"!  c #F3BB34",
"~  c #FCBA31",
"^  c #FDC33D",
"/  c #9E8A40",
"(  c #A79F61",
")  c #A5A267",
"_  c #BFB56C",
"`  c #D5B644",
"'  c #F8BE46",
"]  c #EFB75C",
"[  c #EEBB5C",
"{  c #C0B56D",
"}  c #C3B96C",
"|  c #F6C343",
" . c #FBC644",
".. c #FECA45",
"X. c #F4C74A",
"o. c #F8C348",
"O. c #FECC49",
"+. c #FFDB4D",
"@. c #FDCC52",
"#. c #FED055",
"$. c #FFD852",
"%. c #FDD65D",
"&. c #FFD95E",
"*. c #FFE34E",
"=. c #FFE652",
"-. c #FFE75D",
";. c #F0C164",
":. c #F2CC6F",
">. c #FDDA65",
",. c #FBDA6C",
"<. c #F5D274",
"1. c #F6D578",
"2. c #F7DC7D",
"3. c #FEE26D",
"4. c #FFEC78",
"5. c #FFF57F",
"6. c #BCB68F",
"7. c #F5DB94",
"8. c #EAE58F",
"9. c #F0E384",
"0. c #F9E282",
"q. c #F4E98C",
"w. c #FBEA89",
"e. c #FFFB97",
"r. c #FFFD99",
"t. c #FFFFD0",
"y. c none",
/* pixels */
"y.y.y.y.y.y.y.y.y.y.y.y.y.y.y.y.y.y.y.y.y.y.y.y.y.y.y.y.y.y.y.y.",
"y.y.y.y.y.y.y.y.y.y.y.y.y.              y.y.y.y.y.y.y.y.y.y.y.y.",
"y.y.y.y.y.y.y.y.y.y.y.y.  ( ) : @ @ @ #   y.y.y.y.y.y.y.y.y.y.y.",
"y.y.y.y.y.y.y.y.y.y.y.  - 5.3.E l V V S o   y.y.y.y.y.y.y.y.y.y.",
"y.y.y.y.y.y.y.y.y.y.  ; -.! A F G G F H S #   y.y.y.y.y.y.y.y.y.",
"y.y.y.y.y.y.y.y.y.  6.t.7.S J G J J J G F V 0   y.y.y.y.y.y.y.y.",
"y.y.y.y.y.y.y.y.  0 n W E A K a < 3 4 G D D B w   y.y.y.y.y.y.y.",
"y.y.y.y.y.y.y.    Q C B D J a i p p p i B J G C $   y.y.y.y.y.y.",
"y.y.y.y.y.y.    +.^ R J F c r h b k k r a B J F S O   y.y.y.y.y.",
"y.y.y.y.y.  * =.| G G F c < j j j j j k r a G G H S O   y.y.y.y.",
"y.y.y.y.y.  = +. .J J x < b j j j j j j k u 4 D G V +   y.y.y.y.",
"y.y.y.y.  ( 9.,.J J a i j j j j j j j h l ' ;.1 B D c &   y.y.y.",
"y.y.y.y.  } r.,.A J 6 y k h j j j j j N V #.2., B J S 7   y.y.y.",
"y.y.y.y.  _ e.,.S J 8 u k h j j j j N J S O.<., A J V q   y.y.y.",
"y.y.y.y.  _ r.,.S K 8 y k j j j j N J F z @.1., B J V 7   y.y.y.",
"y.y.y.y.  _ r.,.S J 8 y k j j j N J J J A @.1., A J V 0   y.y.y.",
"y.y.y.y.  _ e.,.S J 6 y b b b N G G D S E >.<., B F V w   y.y.y.",
"y.y.y.y.  _ e.,.D J 6 y m j N G J F G E ^ 3.<.< A J V 5   y.y.y.",
"y.y.y.y.  { r.,.S J i y b N G D G J E O...3.<., A J S q   y.y.y.",
"y.y.y.y.  _ r.,.D J 6 y N J G D J E O...^ >.<.< B F V q   y.y.y.",
"y.y.y.y.  } r.,.Z D 8 y N G G S E ....O.^ 3.1., B J S 7   y.y.y.",
"y.y.y.y.y.  / $.^ J A a r N S ~ ..O...^ 4.[ e B F V $   y.y.y.y.",
"y.y.y.y.y.  . *.o.J D B a i G ^ .... .3.] P g J H S X   y.y.y.y.",
"y.y.y.y.y.y.  U O.E J J A 8 g o.>.%.%.:.L f K F S 9   y.y.y.y.y.",
"y.y.y.y.y.y.y.  X.o.Y G G J < [ w.0.0.3 M J G H n   y.y.y.y.y.y.",
"y.y.y.y.y.y.y.y.  n m B J G J 8 , 2 3 A J J G m   y.y.y.y.y.y.y.",
"y.y.y.y.y.y.y.y.y.  > t 8 J J M M M M G H S a   y.y.y.y.y.y.y.y.",
"y.y.y.y.y.y.y.y.y.y.  % T E S J J Y J G G 5   y.y.y.y.y.y.y.y.y.",
"y.y.y.y.y.y.y.y.y.y.y.  ` &.^ Y S V G S 9   y.y.y.y.y.y.y.y.y.y.",
"y.y.y.y.y.y.y.y.y.y.y.y.  q.8.I p d s v   y.y.y.y.y.y.y.y.y.y.y.",
"y.y.y.y.y.y.y.y.y.y.y.y.y.              y.y.y.y.y.y.y.y.y.y.y.y.",
"y.y.y.y.y.y.y.y.y.y.y.y.y.y.y.y.y.y.y.y.y.y.y.y.y.y.y.y.y.y.y.y."
};
