/* XPM */
static char *result[] = {
/* columns rows colors chars-per-pixel */
"32 32 101 2 ",
"   c black",
".  c #3E2105",
"X  c #582C04",
"o  c #542E0A",
"O  c #4B3117",
"+  c #6B3F14",
"@  c #603F1E",
"#  c #8F4E0E",
"$  c #904F0F",
"%  c #8E4F10",
"&  c #935510",
"*  c #A55406",
"=  c #A2550D",
"-  c #B3600D",
";  c #B8600B",
":  c #B46910",
">  c #885622",
",  c #D76407",
"<  c #D96406",
"1  c #DC6A06",
"2  c #D66108",
"3  c #DD6F08",
"4  c #D6710E",
"5  c #DD720C",
"6  c #D67E0E",
"7  c #CB6D10",
"8  c #DA6F17",
"9  c #CB7412",
"0  c #D67712",
"q  c #DD7D13",
"w  c #DC781E",
"e  c #E46B07",
"r  c #E57404",
"t  c #E67B05",
"y  c #E57309",
"u  c #EA740A",
"i  c #E37C0E",
"p  c #ED780B",
"a  c #F27D0C",
"s  c #E77C10",
"d  c #E97E10",
"f  c #D98112",
"g  c #E9840C",
"h  c #EC8B0E",
"j  c #F6840E",
"k  c #F8850E",
"l  c #FB890F",
"z  c #FF930F",
"x  c #E08515",
"c  c #E98511",
"v  c #E78911",
"b  c #EA8B11",
"n  c #F28412",
"m  c #F98610",
"M  c #FB8B11",
"N  c #EF9215",
"B  c #F19412",
"V  c #FD9312",
"C  c #F49B16",
"Z  c #FE9B14",
"A  c #F7A016",
"S  c #FCA316",
"D  c #FCAA16",
"F  c #F6A519",
"G  c #FAA619",
"H  c #F6A91B",
"J  c #FBAA1B",
"K  c #FEB11E",
"L  c #DF892F",
"P  c #E08125",
"I  c #E48A23",
"U  c #E08A2F",
"Y  c #E08931",
"T  c #E39235",
"R  c #E7973A",
"E  c #FAA720",
"W  c #F5A928",
"Q  c #FBB022",
"!  c #FCB82F",
"~  c #FBBA32",
"^  c #F5B63A",
"/  c #FCBF39",
"(  c #FDC23C",
")  c #E5A046",
"_  c #EEB657",
"`  c #FECA46",
"'  c #FDCC49",
"]  c #FAD153",
"[  c #FED75E",
"{  c #F3C865",
"}  c #FED760",
"|  c #F4D16F",
" . c #F6D977",
".. c #F9DF7F",
"X. c #FFE168",
"o. c #F9E37F",
"O. c #F9E282",
"+. c #FBEC8B",
"@. c #FFF28D",
"#. c #FFFC94",
"$. c none",
/* pixels */
"$.$.$.$.$.$.$.$.$.$.$.$.$.$.$.$.$.$.$.$.$.$.$.$.$.$.$.$.$.$.$.$.",
"$.$.$.$.$.$.$.$.$.$.$.$.                $.$.$.$.$.$.$.$.$.$.$.$.",
"$.$.$.$.$.$.$.$.$.      * = = = = = = *     $.$.$.$.$.$.$.$.$.$.",
"$.$.$.$.$.$.$.$.  + o : S Z Z Z Z Z Z S & X   $.$.$.$.$.$.$.$.$.",
"$.$.$.$.$.$.$.  . M V Z H G H H G H G H Z Z q   $.$.$.$.$.$.$.$.",
"$.$.$.$.$.$.  @ V F G H J G G G G G G G F H F n     $.$.$.$.$.$.",
"$.$.$.$.$.  5 f G G K b , 1 1 1 1 1 1 < C J G G 0 i   $.$.$.$.$.",
"$.$.$.$.  b Z S G J h y u p u p u u u u y N J G Z S 6   $.$.$.$.",
"$.$.$.  M S H H D N e p l l l l m M m Z r u B J H H S 4   $.$.$.",
"$.$.  O c S G G C < a M k k k j j m M H Z u 5 A G G Z 9   $.$.$.",
"$.  o M G G J B 2 k m m k k j j k M G G H Z p , F H S G n   $.$.",
"  > c G G K c 1 j j k j k j j j V G G G G A E ^ 1 N K S F q   $.",
"  # Z F D c u p k k k k k k j V S G G G G G K ' _ I h G F z   $.",
"  % Z G J 1 u l k k k k k k V F H G G G H J ! ` #.Y r K F z   $.",
"  % Z F J 5 r l k k k k k l G J G G G J F ! ' ` @.U u K G V   $.",
"  % Z F J 5 e l k k k k l G J G G G D H ( ' ` ` @.U t J F V   $.",
"  % Z H H 5 e M k k j V G D D S G D G ( ` ` ` ` @.U r J F z   $.",
"  # z H D e r l k a V G G S H H H J / ` ' ` ` ` @.L t K G z   $.",
"  % V G J 3 e M m M G J G G H S J ! ' ` ` ` ` ` @.L t K F z   $.",
"  % Z H J y y m m G G G J G G H ~ ' ` ` ` ` ` ' o.U t J F z   $.",
"  $ Z H G J s e M G G G G G G ( ' ` ' ` ' ( ] +.8 b J D F Z   $.",
"$.    Z G G F c 1 M G G G G ( ` ' ' ` ' ( X. .w B F J G V   $.$.",
"$.$.$.  B S J F c e C D F ~ ` ` ( ` ` ( X.{ T g G J S x   $.$.$.",
"$.$.$.  n S G G D i g W ' } [ } [ [ [ [ | R r K G H Z 7   $.$.$.",
"$.$.$.  q C G F G Q 1 ) +.O.O.O.O.O...+.P t K G S G V :   $.$.$.",
"$.$.$.$.  9 V V H G D c 2 < < , , , < < N G F G V Z     $.$.$.$.",
"$.$.$.$.$.      Z H H Z B B B B B B B B F J G V     $.$.$.$.$.$.",
"$.$.$.$.$.$.$.$.  Z Z G J K J K J J J J S S v   $.$.$.$.$.$.$.$.",
"$.$.$.$.$.$.$.$.$.  - f G Z Z S S Z Z S 9 ;   $.$.$.$.$.$.$.$.$.",
"$.$.$.$.$.$.$.$.$.$.    j s d d c d d n     $.$.$.$.$.$.$.$.$.$.",
"$.$.$.$.$.$.$.$.$.$.$.$.                $.$.$.$.$.$.$.$.$.$.$.$.",
"$.$.$.$.$.$.$.$.$.$.$.$.$.$.$.$.$.$.$.$.$.$.$.$.$.$.$.$.$.$.$.$."
};
