/* XPM */
static char *result[] = {
/* columns rows colors chars-per-pixel */
"32 32 119 2 ",
"   c black",
".  c #8A3B03",
"X  c #903F03",
"o  c #854405",
"O  c #8A4100",
"+  c #8B4904",
"@  c #81470D",
"#  c #8F4F0E",
"$  c #904B04",
"%  c #9B4F0A",
"&  c #945009",
"*  c #9E5E18",
"=  c #B74F03",
"-  c #A2560C",
";  c #A5590D",
":  c #A95C0A",
">  c #BF670F",
",  c #A16211",
"<  c #A9621B",
"1  c #A86D1B",
"2  c #BD6712",
"3  c #BF6810",
"4  c #C65906",
"5  c #D55E03",
"6  c #DB5A00",
"7  c #C16305",
"8  c #C26A0B",
"9  c #D76202",
"0  c #DA6505",
"q  c #DC6D06",
"w  c #D4620A",
"e  c #D9640A",
"r  c #D66E09",
"t  c #DE6D0A",
"y  c #D3760D",
"u  c #DE710A",
"i  c #C06710",
"p  c #C96F15",
"a  c #D07718",
"s  c #E16A06",
"d  c #E86E06",
"f  c #E66E08",
"g  c #E86F08",
"h  c #E77007",
"j  c #E47907",
"k  c #EB7308",
"l  c #E37A0D",
"z  c #EF7F0B",
"x  c #F27D06",
"c  c #F77D09",
"v  c #FA7A0A",
"b  c #E77E11",
"n  c #E6870F",
"m  c #E8810F",
"M  c #F08C06",
"N  c #F4830E",
"B  c #FC850F",
"V  c #FF8C0F",
"C  c #FE920E",
"Z  c #FA9D0A",
"A  c #E58311",
"S  c #ED8C12",
"D  c #F18512",
"F  c #F58B11",
"G  c #FF8E10",
"H  c #EE9113",
"J  c #ED961D",
"K  c #F19414",
"L  c #FC9413",
"P  c #F59C15",
"I  c #FE9C14",
"U  c #FC9419",
"Y  c #F59C18",
"T  c #FF9E19",
"R  c #FBA315",
"E  c #FDA816",
"W  c #F5A41A",
"Q  c #FAA619",
"!  c #F6A81A",
"~  c #FBAA1B",
"^  c #FEB01C",
"/  c #CE8427",
"(  c #DF8D38",
")  c #FA9522",
"_  c #FD9D21",
"`  c #F69D2F",
"'  c #CDA73E",
"]  c #D2AB3E",
"[  c #F9AE21",
"{  c #F1AE3F",
"}  c #FCB432",
"|  c #FABB36",
" . c #F7BB3A",
".. c #FABD38",
"X. c #B29540",
"o. c #FCB74A",
"O. c #EDB55A",
"+. c #FAC345",
"@. c #FDC44F",
"#. c #FFD44B",
"$. c #FFD94E",
"%. c #FAC452",
"&. c #F9CB54",
"*. c #FACD5A",
"=. c #FCD15B",
"-. c #F2C563",
";. c #F3CC6E",
":. c #FCD362",
">. c #FCD867",
",. c #F5DA7C",
"<. c #FBE077",
"1. c #FBE37C",
"2. c #FAE684",
"3. c #FCEA85",
"4. c #FCEC8B",
"5. c #F6F193",
"6. c #FCF394",
"7. c #FEF999",
"8. c none",
/* pixels */
"8.8.8.8.8.8.8.8.8.8.8.8.8.8.8.8.8.8.8.8.8.8.8.8.8.8.8.8.8.8.8.8.",
"8.8.8.8.8.8.8.8.8.8.8.8.8.              8.8.8.8.8.8.8.8.8.8.8.8.",
"8.8.8.8.8.8.8.8.8.8.8.8.  - - - - % . X   8.8.8.8.8.8.8.8.8.8.8.",
"8.8.8.8.8.8.8.8.8.8.8.  + I I I I L z v O   8.8.8.8.8.8.8.8.8.8.",
"8.8.8.8.8.8.8.8.8.8.  & Q ! ~ ! ~ ~ ~ F T ,   8.8.8.8.8.8.8.8.8.",
"8.8.8.8.8.8.8.8.8.  2 I W Q Q W Q ~ Q W  .$.'   8.8.8.8.8.8.8.8.",
"8.8.8.8.8.8.8.8.  p P Q ~ ~ t q 0 l ^ Z >.%.x a   8.8.8.8.8.8.8.",
"8.8.8.8.8.8.8.  ; I Q ~ Y l k k k k A =.3.1.o.B :   8.8.8.8.8.8.",
"8.8.8.8.8.8.  + R Q ~ Y b s L U U F 0 O.3.3.&.F L $   8.8.8.8.8.",
"8.8.8.8.8.  o R W Q W m t G Q Q ~ Q ) 6 O.%.Z ~ N L &   8.8.8.8.",
"8.8.8.8.8.  @ C W ~ u f L Q Q ~ Q | 3.U 0 n ~ Q F V #   8.8.8.8.",
"8.8.8.8.  < S Q Q t S R Q Q ~ Z ..2.3.2.` d l ~ R }  .X.  8.8.8.",
"8.8.8.8.  8 R ~ W 9 K ~ ~ ~ I +.<.6.4.&._ d q ~ Q ..$.]   8.8.8.",
"8.8.8.8.  2 I ~ Q 9 K ~ Q Q | 1.6.3.:.~ C h q ~ Q ..#.'   8.8.8.",
"8.8.8.8.  > I ~ Q 9 H ~ Q } 4.4.3.:.R W L h q ~ Q ..#.'   8.8.8.",
"8.8.8.8.  > I ~ R 9 K Q | 4.3.6.*.R ~ ~ L h q E R ..#.'   8.8.8.",
"8.8.8.8.  > I ~ W 0 M +.3.3.6.%.! Q Q ~ L f q ~ Q | #.'   8.8.8.",
"8.8.8.8.  i I ~ Z 9 { 1.6.4.&.~ Q ~ Q ! L g q ~ Q | #.'   8.8.8.",
"8.8.8.8.  i Z [  .9 ;.7.3.=.! E ~ Q Q ~ L d q ~ Q | #.'   8.8.8.",
"8.8.8.8.  3 I +.4.w -.6.=.R ~ Q Q Q Q Q L d q Q Q | #.'   8.8.8.",
"8.8.8.8.  7 @.6.1.5 ;.:.R ~ Q Q Q ~ Q ! L h q ~ E ..$.]   8.8.8.",
"8.8.8.8.8.  * o.4.,.( J ^ Q Q Q Q Q Q L s l R Q F U 1   8.8.8.8.",
"8.8.8.8.8.  . } 5.=.J j S ~ Q Q ! Q ~ h l K ~ ~ F C +   8.8.8.8.",
"8.8.8.8.8.8.  / :.R ^ S u K Q ~ ~ R H j Y ^ Q K N r   8.8.8.8.8.",
"8.8.8.8.8.8.8.  N W Q ~ P 0 Y Q Q K 0 Q ~ Q H 5 w   8.8.8.8.8.8.",
"8.8.8.8.8.8.8.8.  F T W Q W 0 9 5 u ~ Q ~ A 5 t   8.8.8.8.8.8.8.",
"8.8.8.8.8.8.8.8.8.  y E ! Q K P K P ! ~ Y G r   8.8.8.8.8.8.8.8.",
"8.8.8.8.8.8.8.8.8.8.  8 Q ~ ~ ~ ~ ~ ~ n c 4   8.8.8.8.8.8.8.8.8.",
"8.8.8.8.8.8.8.8.8.8.8.  y Q R I I T K 0 =   8.8.8.8.8.8.8.8.8.8.",
"8.8.8.8.8.8.8.8.8.8.8.8.  D b b m u 4 e   8.8.8.8.8.8.8.8.8.8.8.",
"8.8.8.8.8.8.8.8.8.8.8.8.8.              8.8.8.8.8.8.8.8.8.8.8.8.",
"8.8.8.8.8.8.8.8.8.8.8.8.8.8.8.8.8.8.8.8.8.8.8.8.8.8.8.8.8.8.8.8."
};
