/* XPM */
static char *result[] = {
/* columns rows colors chars-per-pixel */
"32 32 102 2 ",
"   c #131215",
".  c #563514",
"X  c #6D4215",
"o  c #7E4C18",
"O  c #9A5D18",
"+  c #AE6415",
"@  c #A16119",
"#  c #A8641B",
"$  c #BF6E13",
"%  c #B0691B",
"&  c #BE7521",
"*  c #D65F03",
"=  c #CB610B",
"-  c #D66204",
";  c #DA6404",
":  c #DD6A06",
">  c #DF7209",
",  c #DD7B0F",
"<  c #C16F13",
"1  c #DC761B",
"2  c #E16C06",
"3  c #E07309",
"4  c #E57D0C",
"5  c #EC790B",
"6  c #F27F0B",
"7  c #E37D11",
"8  c #AE9137",
"9  c #DE991A",
"0  c #E6800D",
"q  c #EC830F",
"w  c #EB880F",
"e  c #F6830E",
"r  c #F8850E",
"t  c #FA8A0F",
"y  c #EC8710",
"u  c #E38D16",
"i  c #EC8B12",
"p  c #E98B1A",
"a  c #F98510",
"s  c #F98C11",
"d  c #EF9312",
"f  c #F49313",
"g  c #F99413",
"h  c #F49C16",
"j  c #F99E17",
"k  c #F89E19",
"l  c #F7A117",
"z  c #FAA416",
"x  c #F6A31A",
"c  c #FAA619",
"v  c #FAA91A",
"b  c #E68C2C",
"n  c #E99727",
"m  c #EC9A27",
"M  c #E18F30",
"N  c #E79E3F",
"B  c #F6AB26",
"V  c #F9AC25",
"C  c #FAAE2A",
"Z  c #FAB126",
"A  c #FBB229",
"S  c #FAB82E",
"D  c #FBBB34",
"F  c #F4B63C",
"G  c #FBBD39",
"H  c #978341",
"J  c #AD9445",
"K  c #A09C68",
"L  c #A7A362",
"P  c #AAA265",
"I  c #AEA867",
"U  c #D2B245",
"Y  c #E7A042",
"T  c #EFAC42",
"R  c #F3C747",
"E  c #FBC641",
"W  c #FDCB46",
"Q  c #FECC48",
"!  c #FCCE51",
"~  c #FCD254",
"^  c #FCD359",
"/  c #F2C864",
"(  c #FBD565",
")  c #FCD865",
"_  c #FAD76A",
"`  c #F9DA6B",
"'  c #E5D97E",
"]  c #FBDE72",
"[  c #F7DF7E",
"{  c #FCE375",
"}  c #FCE37B",
"|  c #FAE685",
" . c #FDE984",
".. c #F1E78A",
"X. c #F2EA8C",
"o. c #FEED8B",
"O. c #FDF18F",
"+. c #FDF291",
"@. c #D8D7AE",
"#. c #FAEFB5",
"$. c #FBF3C2",
"%. c none",
/* pixels */
"%.%.%.%.%.%.%.%.%.%.%.%.%.%.%.%.%.%.%.%.%.%.%.%.%.%.%.%.%.%.%.%.",
"%.%.%.%.%.%.%.%.%.%.%.%.%.            %.%.%.%.%.%.%.%.%.%.%.%.%.",
"%.%.%.%.%.%.%.%.%.%.%.%.  I I I & + #   %.%.%.%.%.%.%.%.%.%.%.%.",
"%.%.%.%.%.%.%.%.%.%.%.  H { ] ( T f i X   %.%.%.%.%.%.%.%.%.%.%.",
"%.%.%.%.%.%.%.%.%.%.  J ! Q E v v v v t .   %.%.%.%.%.%.%.%.%.%.",
"%.%.%.%.%.%.%.%.%.  @.$.$.#.v v v v v c t o   %.%.%.%.%.%.%.%.%.",
"%.%.%.%.%.%.%.%.  9 B C C C v > : ; : c c i %   %.%.%.%.%.%.%.%.",
"%.%.%.%.%.%.%.  8 G G A x x 4 5 5 5 7 4 l j u @   %.%.%.%.%.%.%.",
"%.%.%.%.%.%.%.  W W W A c z - 6 e r e * h c j y   %.%.%.%.%.%.%.",
"%.%.%.%.%.%.%.  W W W A z h - e e r e ; f k j 6   %.%.%.%.%.%.%.",
"%.%.%.%.%.%.    W W W A d * r r r r e t ; y k q   %.%.%.%.%.%.%.",
"%.%.%.%.%.  K ' } o.S v d * r r r r e e : y c z ,   %.%.%.%.%.%.",
"%.%.%.%.%.  K o.O.o.A w 3 ; r r a r r r ; 3 w c e   %.%.%.%.%.%.",
"%.%.%.%.%.  L o.o.o.A 4 : 2 r r r r r s b 1 3 c e   %.%.%.%.%.%.",
"%.%.%.%.%.  L o.o.o.A 4 2 t r r r t t c } Y 3 v t   %.%.%.%.%.%.",
"%.%.%.%.%.  K o.o.O.A 4 2 r r r r s c c { N 3 v t   %.%.%.%.%.%.",
"%.%.%.%.%.  P  .o.o.A 4 2 r r r g z v z [ Y 3 v t   %.%.%.%.%.%.",
"%.%.%.%.%.  P o.o.o.A 4 2 r r g z c v S } N 3 c t   %.%.%.%.%.%.",
"%.%.%.%.%.  P o.o.o.C 4 : 6 r l z v v ^ / M 3 v a   %.%.%.%.%.%.",
"%.%.%.%.%.  L o.o.o.A 0 - * e z c v V O.1 ; 3 v t   %.%.%.%.%.%.",
"%.%.%.%.%.  L o.o.o.Z c d - c v v Z Q +.1 i v v t   %.%.%.%.%.%.",
"%.%.%.%.%.%.    ~ ~ E Z d - v c S E Q +.1 y k y   %.%.%.%.%.%.%.",
"%.%.%.%.%.%.%.  Q Q Q A h w 4 j D Q ` Y p h j y   %.%.%.%.%.%.%.",
"%.%.%.%.%.%.%.  W Q Q A v l * B E ) | - h v k 5   %.%.%.%.%.%.%.",
"%.%.%.%.%.%.%.  R E E A c l - F _ | } - h v j 7   %.%.%.%.%.%.%.",
"%.%.%.%.%.%.%.%.  t s a g v v : - * - c c g $   %.%.%.%.%.%.%.%.",
"%.%.%.%.%.%.%.%.%.  = ; : > c h h h h x g O   %.%.%.%.%.%.%.%.%.",
"%.%.%.%.%.%.%.%.%.%.  & n m D v c c x g O   %.%.%.%.%.%.%.%.%.%.",
"%.%.%.%.%.%.%.%.%.%.%.  U ^ ~ G B l j <   %.%.%.%.%.%.%.%.%.%.%.",
"%.%.%.%.%.%.%.%.%.%.%.%.  X...X.T 5 7   %.%.%.%.%.%.%.%.%.%.%.%.",
"%.%.%.%.%.%.%.%.%.%.%.%.%.            %.%.%.%.%.%.%.%.%.%.%.%.%.",
"%.%.%.%.%.%.%.%.%.%.%.%.%.%.%.%.%.%.%.%.%.%.%.%.%.%.%.%.%.%.%.%."
};
