/* XPM */
static char *_73f5a22342542c2af6f3c94e55ffa37LipAxLdJ0a3b50d4[] = {
/* columns rows colors chars-per-pixel */
"64 64 72 1 ",
"  c None",
". c black",
"X c #111111",
"o c gray7",
"O c #151515",
"+ c #161616",
"@ c gray9",
"# c #181818",
"$ c #1B1B1B",
"% c gray11",
"& c #1D1D1D",
"* c #1E1E1E",
"= c #252525",
"- c gray15",
"; c #272727",
": c #2C2C2C",
"> c #323232",
", c #373737",
"< c #393939",
"1 c #3F3F3F",
"2 c #939393",
"3 c gray58",
"4 c #959595",
"5 c #989898",
"6 c gray60",
"7 c #9A9A9A",
"8 c gray62",
"9 c #A5A5A5",
"0 c gray65",
"q c #A7A7A7",
"w c gray66",
"e c #AAAAAA",
"r c gray67",
"t c #ACACAC",
"y c gray68",
"u c #AEAEAE",
"i c #AFAFAF",
"p c gray69",
"a c #B1B1B1",
"s c gray70",
"d c #B4B4B4",
"f c gray",
"g c gray75",
"h c #C1C1C1",
"j c gray76",
"k c #C3C3C3",
"l c gray77",
"z c #C5C5C5",
"x c #C6C6C6",
"c c gray78",
"v c #C8C8C8",
"b c gray79",
"n c #CACACA",
"m c #CBCBCB",
"M c gray80",
"N c #CECECE",
"B c #DADADA",
"V c gray86",
"C c #DDDDDD",
"Z c gray87",
"A c #DFDFDF",
"S c #E1E1E1",
"D c gray89",
"F c #E4E4E4",
"G c gray91",
"H c #E9E9E9",
"J c #F1F1F1",
"K c #F3F3F3",
"L c #F8F8F8",
"P c #F9F9F9",
"I c gray98",
"U c #FBFBFB",
/* pixels */
"                                                                ",
"                                                                ",
"                                                                ",
"                                                                ",
"        ..                ..                ..                  ",
"        ..                ..                ..                  ",
"        ..                ..                ..                  ",
"        @@                @@                @#                  ",
"      .@74X.            .%87#.            .@74X.                ",
"      .@uqX.            .%au#.            .@uqX.                ",
"      .@uqX.            .#au@.            .@eqX.                ",
"      %>ue-@            %<au:@            %>ae-@                ",
"    .-NZlfu7#.        .=nZlfu2X.        .-NDlfu7@.              ",
"    .-GInjlu@.        .%DInjlqX.        .-GUnjlu@.              ",
"    .-GInjje@.        .%DIlljqX.        .-FInjje@.              ",
"    %1FJnjju:@        %<ZJljjq:@        %1FKnjju:@              ",
"  .%nZNljjjju2X.    .-NDnnjjjfu4@.    .%lZNlljjfu2X.            ",
"  .=DIljjjjjlqX.    .-GInjjjjjlu@.    .%FInjjjjjlqX.            ",
"  .%DInllllllqX.    .-GInjlljjle@.    .=FInjlljllqX.            ",
"  .%nBaeeeueu2X.    .-NZaeueueu7@.    .%nBueueueu4X.            ",
"    %%##@@@@@#        %%#@@@@@@@        %%##@@@@@@              ",
"    ..........        ..........        ..........              ",
"                                                                ",
"                                                                ",
"                  ..                ..                ..        ",
"                  ..                ..                ..        ",
"                  ..                ..                ..        ",
"                  ##                @@                @@        ",
"                .%87@.            .@74X.            .%97@.      ",
"                .%au@.            .@uqX.            .%au@.      ",
"                .#au@.            .@eqX.            .#ae@.      ",
"                %<da:@            %>ue:@            %,du:@      ",
"              .=lZlju2X.        .-NDlfu7@.        .%nBlfu4X.    ",
"              .%FInjlqX.        .-GUnjle@.        .%DInjlqX.    ",
"              .%DKnjlqX.        .-FInjlu@.        .%DInjjqX.    ",
"              #<DJljje-@        %1FKljju:@        #1ZJljle-@    ",
"            .-NDnlljjfu7@.    .%nZnnljjfu2X.    .-NDnnjjjfu4#.  ",
"            .-GUnjjjjjlu@.    .=DIljjjjjlqX.    .-GIljjjjjlu@.  ",
"            .-GInjllllle@.    .%DInjlllllqX.    .-GINjljlllu@.  ",
"            .-NZaeeueeu7@.    .%nBaeeeeuu4X.    .-NZaeeueue7@.  ",
"              %%##@@@@@@        %%###@@@@@        %%#@@@@@@@    ",
"              ..........        ..........        ..........    ",
"                                                                ",
"                                                                ",
"        ..                ..                ..                  ",
"        ..                ..                ..                  ",
"        ..                ..                ..                  ",
"        @@                @@                @@                  ",
"      .@74X.            .%87@.            .@74X.                ",
"      .@uqX.            .%au@.            .@ueX.                ",
"      .@uqX.            .#au@.            .@eqX.                ",
"      %>ue-@            %<au:@            %>ae:@                ",
"    .-NDlfu7#.        .%nZlju4X.        .-NZlfu4#.              ",
"    .-GUnjlu@.        .=FIljlqX.        .-GInjlu#.              ",
"    .-FInjje@.        .%DKnjjqX.        .-GInjje@.              ",
"    %1FKnjju:@        #<ZJnjle-@        %1FKnjju:@              ",
"  .%nZnnjjjfa2X.    .-NDnnjjjfu7@.    .%lZNnjjjju2X.            ",
"  .=FIljjjjjlqX.    .-GInjjjjjle@.    .%DIljjjjjlq@.            ",
"  .%DInjjjljlqX.    .-GInjlllllu@.    .=DInlljljlqX.            ",
"  .%nBaeeueuu4X.    .-NZaeeeuee7@.    .%nBaeueueu2X.            ",
"    %%##@@@@@@        %%##@@@@@@        %%##@@@@@@              ",
"    ..........        ..........        ..........              ",
"                                                                ",
"                                                                "
};
