/* XPM */
static char *c4c3c9b2104746c8f26b5aa036b9136aOTDRBaEd16L0yhHv[] = {
/* columns rows colors chars-per-pixel */
"64 64 94 2 ",
"   c #2B1612",
".  c #2E1814",
"X  c #331A15",
"o  c #391E17",
"O  c #3A1F18",
"+  c #3C221B",
"@  c #42251C",
"#  c #49271E",
"$  c #44281F",
"%  c #4A281F",
"&  c #442A21",
"*  c #4C2D23",
"=  c #522D22",
"-  c #4C3127",
";  c #4E3328",
":  c #573024",
">  c #5B3225",
",  c #56362A",
"<  c #5B3629",
"1  c #56392D",
"2  c #603628",
"3  c #633929",
"4  c #7A4732",
"5  c #7C4933",
"6  c #834E36",
"7  c #875037",
"8  c #885037",
"9  c #8E553B",
"0  c #8F583E",
"q  c #91563B",
"w  c #975A3D",
"e  c #985B3E",
"r  c #8F5B41",
"t  c #955D41",
"y  c #9C5E40",
"u  c #9E6142",
"i  c #A16344",
"p  c #A16648",
"a  c #A66949",
"s  c #AA6A48",
"d  c #AB6A49",
"f  c #AB6B49",
"g  c #AB6C4B",
"h  c #AD6C4A",
"j  c #AD6D4B",
"k  c #AE6E4B",
"l  c #AF6E4B",
"z  c #B06E4C",
"x  c #B16F4C",
"c  c #B16F4D",
"v  c #AE704E",
"b  c #AE714F",
"n  c #AF714F",
"m  c #B1704D",
"M  c #B2704D",
"N  c #B2714D",
"B  c #B4724E",
"V  c #B4724F",
"C  c #B4734F",
"Z  c #A6795E",
"A  c #B57450",
"S  c #B77450",
"D  c #B47653",
"F  c #B77753",
"G  c #B07D5F",
"H  c #A87B60",
"J  c #AB7D62",
"K  c #AC7E63",
"L  c #B18266",
"P  c #B38367",
"I  c #B58365",
"U  c #B38467",
"Y  c #B48467",
"T  c #B88263",
"R  c #BC8767",
"E  c #B58568",
"W  c #B78769",
"Q  c #B88668",
"!  c #B9896B",
"~  c #BA8A6B",
"^  c #BE8B6B",
"/  c #BC8B6D",
"(  c #BF8B6C",
")  c #BD8C6D",
"_  c #BE8C6E",
"`  c #BE8D6E",
"'  c #C08968",
"]  c #C08C6C",
"[  c #C28F6F",
"{  c #C38F70",
"}  c #C39070",
"|  c #C49070",
" . c #C59272",
".. c #C69272",
/* pixels */
" .[ p w e e e e c C y e e q + + E { p w t w y w w y h z i q O + E ..p y z S y y e e w e e 9 + + I { p w e e e w w e e w e 9 +   ",
" .[ p w e e e u k m e e e q + + E { p y w w w w t y z S y q O O E { p y c c y t e e e e y 9 + + L ..p w e e e y e e e e e q +   ",
" .[ p w e e s c i u e e e q + + L { i w y w w w w y c S i q + + E { p y j S y y e e e e w 9 + + L { p w e e f k y e e e e 9 O   ",
" .[ p e e e h C e e e e e q + + I { p w w y w y t y c h y w + + L { p y c S y y w e e e e 9 + + W ..p w e e h c y y e w e q +   ",
" .[ p e k m i e e e e w e q + + G { a w e e e e w w e y e q + + I { a e c S u y e e e e y 9 + + P { p e e e y y h c e e e q O   ",
" .[ a e m C y w e e e e e q + + E { p y y e e e w y e e e q + + E { p e c c y w w e e w w q + + I { p w w e e e c S y e e q O   ",
" .[ p e c C u e e w e e e 9 + + E { p y h z y e w e e e e q O + L { p e y y t e e e e e t q + + L ..p e e e w e y y e e e q @   ",
" .[ p e c C i e e e e e e 9 + + I { p e c c u e e e e e e q O O L { i e y e e e e w e e e q + + L { p t e e e e e e e e e 8 O   ",
" .{ p e c S u t e e e e e 9 + + J ..p y c C u e w w w w t 9 o @ W ..p y y w w w w w w e e q + + U  .u e e w e e e e e e e q +   ",
" .{ p e k m y w e e e e e 9 + + E { p y c C u e y w y y w 0 + o L { u w w w w y t y e e e 9 O + U ) u 9 q e e e e e 9 9 e q +   ",
" .[ p e y y y w w e e w e q + + E { i t c S u e w w w w y 9 o & E { p y y w w y z z y w e q + + U ) , + 9 e e e e q @ + t f @   ",
" .[ p e e w w w e e e e e 9 + + W [ i y c c u t y w w y w 9 + o L { u w w w y w z c y e e q + + W ) - + 9 e u e e q @ X y f @   ",
" .[ p e w y w y e e e e e 9 + + J  .a y c C y w w w w w w q + & E { p t y w w y z c e e e q + + U  .J Z P R R R R T u t j j @   ",
" .[ u q w w w w e w q q e 9 + + W { p y c c i y w y w y t q o + E { u w y w y y z c y e e q + + H / ! / ! / ! ! / W b b k u +   ",
" ./ , @ 8 y w t e 9 & + 7 q + + Y  .i e y y f c t y w w w 9 + + L ..p w w w d c i e e e e q O . & & & & & & & & & & @ @ @ + .   ",
" ./ 1 & r u u u u t * + 9 t + + G  .p e e e j m y w w y t 0 + @ L { p y w y h c y e e e e q +       . . . .   . . . . . . .     ",
" . .W U ) [ ) [ ) [ W P ~ I & + P  .p w e y k m y e e e e q + @ Y { a w e e j C e e e e e 9 + . & * % % # % % % % % % % % # X   ",
"/ / ) / / / / ~ / / / / / P $ + U ) p e e e k m y e e e e q o o Y { p w w e h C y e e e e q + X = = = = = = = = = : = % = % X   ",
"* - * - - - * * - * * * * * X + U  .u t e e c m y e e t e q + @ P { p w e e y y e w e e e q + X w u # X 4 q 8 8 8 6 + X % # X   ",
"                    .         + U  .p t e e j m y e e w e q + + P  .p w e e e e e e e e e 9 + + a j = O q e e e e q @ o = = X   ",
"% % % % # # # # % * # # # *   + I { p w e e k C u w e w y 9 @ + I [ p e e e e e w e e e t 9 + X a m q 8 e e e w e e 8 8 8 8 o   ",
"= = = = * = = = = = = = = * X + P { p w e u k c y w w y w 0 + + P [ p e w e e e e e e e w 9 + + a S i e e e e e e e e e e q +   ",
"i e 2 % = = 4 8 8 7 8 6 6 6 + + P  .p w e e y y y w t w w 9 + + P [ p e e e e e e e e e y 9 + + K ~ p e e e e e e e e e e q o   ",
"S c 3 * = > 8 e e e e q e q + + P { p e e e e e e w w w y q + + P  .u q e y w e e w q q u 9 + + U  .p q e e e e e e e e e 8 @   ",
"S j * O 5 8 e e e q * @ 6 q + + I [ p w e w e e w e e w e 9 + + P ) 1 # u b u w e 8 * @ t h @ + T | i w e e e e w e e e e q +   ",
"S A * + 8 y y w e 8 @ o 6 9 + + P  .p e e e e e e e e e e q o + U ) , & a S p u u q * + u k + + Y | p e e e e e e e e e e q +   ",
"[ ) t 7 w w e e e e 8 8 e 9 + + I { p w w e e w e w e w e q + + U  .W U [ | / ~ [ ~ I P ) W & + U [ a e e e e e e e e e e q +   ",
"{ { a w e e w e e e e e y q + + P { p w e e e e e e e e e q + + J ) ) { [ ) ) ) / [ ) / [ P & + U | i w e e e e e e e e e q o   ",
" .[ p e e e w e e e e e e q + + P  .p e e e e e e t e e e 9 @   * : - - * - - - * ; ; ; - - . @ P | p w e e e e e e h z e q @   ",
" .[ i e e e e e e e e e e 9 + + P { p w w e e w e e e w e 9 o                                 + U [ p w e e e e e w M C u q o   ",
" .[ p e e e e e e e e e e 9 + + P [ p w e w e e e e e e e q o   @ & # # # # % % % # % @ $ % . + P | p e e e e e e e m C y 9 +   ",
" .[ p e e e w e e e e e e q O + P  .p w e e e e e u e e e q + X < < = * = > = = = = * * = : X + I | p e e e e e e u m C u 9 o   ",
" .[ p w e e e e e w e e y r + + I [ p w e e e e j j y e y 9 + + Z P * X 6 9 < = = * X X 4 8 O + W [ p y j m y e e e m S i 7 @   ",
" .{ p w e e e e e e e e w 9 + + W  .p w e e e y m m y e w 9 + + Y ) ; o 7 t 3 = = = X X 6 w + + P  .y y j A i e e y j S u q O   ",
" .[ i y h c u e e e t e w q + + P { p w e e e e m m y w e 9 + + Y { t 6 w e 8 8 8 8 6 6 q q O + E  .p y c S u e e e y y e q O   ",
" .[ a e j S u e y w w w y 9 + + I { p w e e e y m m y w y 9 + + P [ u y y y e y e e y e e q O @ P  .u y j S u e e e e e e q O   ",
" .[ p e c c i e w y w w y 9 O + P [ p e e e e e c m y w e 9 + + I [ a e k c y e e e e e y 9 + + P  .p y c c u e e e e e e q O   ",
" .[ p e c C y e w w t y y 9 O + P  .a q e e e e k m e e e q + + Y  .p e c C i e w e e e w t + + P { p t c S u e e e e e e q @   ",
" .[ p y c C y e e e h h y q + + I | p e e e f j p i e e e 9 + + P [ p e z C y e e e y w w 9 + + P  .u y c S u w e q e e e q O   ",
" .{ p e c S i e e y c c i q + + I [ a q e e j S e e e e e 0 + + W { p e c C i e t w w w y 9 + + P { p y k c i w e e e e e q O   ",
" .[ p e C C i e e y c A y q + + P  .p w e e k C u w e e e 9 + + I { p y c C y e e e e e e q O + I [ a e u e s z e e e e e q +   ",
" .[ p e c C y e w y h c i 8 + + P [ p w e e h c u e w e e 9 + + P [ p e c C i e e e e e e q O + I [ i e e w k C u e e e e q O   ",
" .[ p y c c i e e e y y y q O + Y  .p w e e e y e e e e e 9 + + I [ p y c C i w e e w e t q + + P  .a q e e z C y e e e e 9 O   ",
" .[ p e c C u e e w e e w 9 O + P [ p w e e e e e e e e e q + + P  .p e z c i e e w e e y q + + P [ s e e e z c u e e e e 9 @   ",
" .[ p e c C u e w e e w t 9 + + L  .p w e e e e e e e e t 9 + + P { p e e y s h e e e e e q + + I [ p w e e e i h k y e e 9 O   ",
" .[ p y c C u e e e e e y 9 + + U { u 9 e e e e e e 9 9 e 0 + & P  .p e e e k C y e e e e q + + P  .p w e e e e k m y e e 9 O   ",
" .[ i e c C u e e e e e t 9 + + L ` , @ 6 y e w t 9 & @ u u @ + P  .p w e e z C y e e e e 9 o + I [ p w e e e e c c y e w q @   ",
" .[ a e z c u e e e e e e 9 + + W ` 1 @ t u u u u r * + u b @ + P [ p w e y h c y e e e e q + + I [ p e e e e e k z e e e q O   ",
" .[ p e y y e e e e e e e q + + Y  .~ Y ~ ] / / ] ] Y P D g + + I { p w e e y y e e e e y 9 + + L { p w w e e e y y e w e 9 +   ",
" .[ p e e e e e e e e e e 8 + + J / ] ) / / / / / ) / / S u + @ P { p w e w e e e e w e t 9 + + E  .p w e e e w e w e e e q +   ",
" .[ p e e e h h y e e e y 9 +   & - - * * * * ; * - * - * & . @ P { p w e w e e e e e e e q + + I  .p w e e e e e e e e e 9 O   ",
" .[ p w e e k C y e e e e 9 @             X             .     + P  .p w e e t w w e e e e 9 + + P { p w e e e e w e e w e q +   ",
" .[ p w e e k C y e e e e q @   # # % # # * # * % % % % % #   + I  .p w y w w w e e w e e q + + P [ p w e e e e e e e e e q O   ",
" .[ i e w y k m y e e e e 8 O X * = = * = = = = = = * = = % X @ P [ p w w e w y e e e e e q + + P  .p e w e e e e e e e e q O   ",
" .[ p w w e y y h h y e e q O O q i # o 4 8 8 8 8 5 + X % = . + I { p w e e e e e e e w e q + + I { u t e e w e e e e e e q @   ",
" .[ p w e e e y c c y e e q + O a m % + 8 e e e e 9 @ X % = . + P { p e e w e e w e e y e q + + P { p y e e e e e e e e e 6 O   ",
" .) a q e e e e c c i e e q + O a A 9 6 w e e e t w 6 6 9 6 + + P { p w e e e w e e z z y q + + I | a q e w s z e e e e e q +   ",
" . .u e e e e y c c e e e q + + a D u w e e e y e e e y t q + + P  .p w e e e e e y c C i q + + I [ p e e w k B i e e e e q O   ",
" . .a e e e e e c m e e e 9 O + G { p w e e f c y e w w y 9 + + I  .p w e e e e e y c C e q o + P | p e e e k B e e e e e q +   ",
" .) u e e e e e k c u e e 9 + + I { p w e y j m y e w y w 9 + + P [ p w w e e w e e z C i q O + I [ p e e e z C i e e e e q O   ",
" .[ a w e e e e y u e e e q O + L  .p w e e k C y e e e e q O + I { p w e e w y k h i y y 9 + + I [ p e e w y i h z e e e q O   ",
" . .u w e e w e e e e e e q + + I { p w e e h c u e e e e 9 + + P  .p w e e e e k c e e t q + + P  .p e e e e e z C y e e q O   ",
" .) u u e w w e e e e e e 9 + + I { p w e e y y e e e e e q + + P { p w e e e e y y e e e q O + I [ p w w e e e z C e e e q @   ",
" . .u t e e e e e e e e e q + + P { p w e e e e e e e e w 9 + + P  .p w w e e w e e e e e 9 + + Y [ p w e e e e z c e e e q o   "
};
