/* XPM */
static char *_24d3d283a004b66ca6c965899468ed1dVru1o80TC87xDqE[] = {
/* columns rows colors chars-per-pixel */
"64 64 146 2 ",
"   c None",
".  c #010000",
"X  c #0A0700",
"o  c #0D0A02",
"O  c #060709",
"+  c #06080B",
"@  c #0C0C0C",
"#  c #110700",
"$  c #150B01",
"%  c #1B0E01",
"&  c #1E1001",
"*  c #0D0E12",
"=  c #0F1013",
"-  c #151515",
";  c #1D1A11",
":  c #161718",
">  c #171818",
",  c #1A1A1B",
"<  c #271F04",
"1  c #341B02",
"2  c #211E15",
"3  c #2A1F15",
"4  c #2B2206",
"5  c #2C2309",
"6  c #382C07",
"7  c #30270B",
"8  c #332A0A",
"9  c #3B2F0A",
"0  c #3C300B",
"q  c #2A2015",
"w  c #1F2024",
"e  c #232324",
"r  c #2B2B2B",
"t  c #2E2F32",
"y  c #323232",
"u  c #353638",
"i  c #3B3B3B",
"p  c #442302",
"a  c #492602",
"s  c #4B2A09",
"d  c #5A2E02",
"f  c #5D3003",
"g  c #643403",
"h  c #743D04",
"j  c #463D22",
"k  c #5F4E17",
"l  c #7D4104",
"z  c #645118",
"x  c #45423E",
"c  c #444444",
"v  c #464749",
"b  c #47484A",
"n  c #4C4C4C",
"m  c #535353",
"M  c #5D5A52",
"N  c #5D5D5D",
"B  c #675E42",
"V  c #685F43",
"C  c #7C7359",
"Z  c #5D5E60",
"A  c #5F6062",
"S  c #5F6268",
"D  c #656566",
"F  c #6D6B65",
"G  c #646569",
"H  c #67686B",
"J  c #696969",
"K  c #747474",
"L  c #767778",
"P  c #7B7B7B",
"I  c #804304",
"U  c #866B19",
"Y  c #8A6F1A",
"T  c #8E721C",
"R  c #92751C",
"E  c #81785E",
"W  c #8B7F5A",
"Q  c #9F8430",
"!  c #A0842E",
"~  c #B79324",
"^  c #BA9524",
"/  c #BD9824",
"(  c #A58A36",
")  c #AA8E37",
"_  c #AE9032",
"`  c #B29333",
"'  c #E1B93D",
"]  c #F4C637",
"[  c #99874E",
"{  c #8D815C",
"}  c #A89351",
"|  c #BDA14A",
" . c #D5B040",
".. c #D9B441",
"X. c #838383",
"o. c #8C8C8C",
"O. c #929292",
"+. c #909090",
"@. c #949494",
"#. c #969696",
"$. c gray60",
"%. c #989898",
"&. c #9B9B9B",
"*. c #9A9A9A",
"=. c #9D9D9D",
"-. c #9E9E9E",
";. c #9C9D9E",
":. c #9D9D9D",
">. c #A2A2A2",
",. c #A5A5A5",
"<. c #A7A7A7",
"1. c #A3A3A4",
"2. c #A9A9A9",
"3. c gray66",
"4. c #ABABAB",
"5. c #ADADAD",
"6. c #AEAEAE",
"7. c #AAAAAA",
"8. c #B0B0B0",
"9. c gray70",
"0. c #B6B6B6",
"q. c #B5B5B5",
"w. c #B9B9B9",
"e. c #BBBBBB",
"r. c #BFBFBF",
"t. c gray74",
"y. c #C1C1C1",
"u. c gray76",
"i. c #C3C3C3",
"p. c #C7C7C7",
"a. c gray77",
"s. c gray80",
"d. c #CDCDCD",
"f. c #CECECE",
"g. c gray81",
"h. c #CBCBCB",
"j. c #D0D0D0",
"k. c gray82",
"l. c #D2D2D2",
"z. c LightGray",
"x. c gray83",
"c. c #D5D5D5",
"v. c gray84",
"b. c #D9D9D9",
"n. c #E7E7E7",
"m. c #E9E9E9",
/* pixels */
"                                                                                                                                ",
"                                                                                                                                ",
"                                            . . . . . . . . . . . . . . . .                                                     ",
"                                            t t y y r y y r y y y r y y y r                                                     ",
"                                        . r L ;.*.*.*.*.*.*.*.*.*.*.*.*.*.L r .                                                 ",
"                                        r m <.c.j.d.j.j.j.j.j.j.j.j.j.x.c.3.m r                                                 ",
"                                    . r L <.i.j.j.j.d.j.d.j.j.d.f.j.f.j.j.u.4.L r .                                             ",
"                                    r m 7.c.j.f.d.j.d.j.d.d.d.d.s.s.s.s.s.j.c.*.t .                                             ",
"                                . r P 4.p.j.j.f.d.g.d.g.d.g.d.d.s.s.s.s.d.j.l.;.t . . .                                         ",
"                                . r o.e.0.9.9.8.9.9.9.8.9.e.p.g.f.j.j.d.d.f.j.<.m w + .                                         ",
"                                . , D X.X.E X.X.X.P P P P @.e.j.j.j.j.j.d.d.d.u.4.K e .                                         ",
"                                . > n J D D H H D D D D D P 1.8.>.%.#.,.u.j.d.j.x.&.y .                                         ",
"                                . > n J J J D J D J D D G J X.H c r r m 3.z.j.j.x.&.t .                                         ",
"                                . - u n n n n n n n n n n n n i , > e v { 3.u.j.j.$.t .                                         ",
"                                . X = > - > > > > - > > > - : w i N o.P b Z 1.z.x.$.t .                                         ",
"                                . X = > > * X . * - > > : = = t D &.p.-.t w @.z.x.*.t .                                         ",
"                                . - u m n u * @ u m n n n b b S *.u.j.*.r e %.x.c.*.y .                                         ",
"                                . > m J J m > ; n H J J P X.{ #.t.p.4.P c m ,.z.j.*.r .                                         ",
"                                . > n J J n > > n H H X.>.q.q.t.j.4.m c P 4.u.j.j.*.t .                                         ",
"                                . > n J J n > > n G G E q.j.j.p.4.P x m 3.x.j.j.j.-.y .                                         ",
"                                . > b H J n - - n J D P q.j.x.,.m c P 4.a.j.s.j.c.&.y .                                         ",
"                                . w Z P K n - > n J L O.e.j.c.*.r e *.c.j.s.j.a.4.K e .                                         ",
"                                . r o.,.E n - - b P >.t.p.j.c.*.r r *.j.j.f.z.4.N , . . . .                                     ",
"                                . y ;.e.o.v * - v X.q.j.j.i.4.P c m ,.j.z.a.3.L t > r r w >                                     ",
"                            . . . y >.e.X.v * * c X.q.j.j.,.m c P 4.u.j.c.4.m t i N o.o.N i = .                                 ",
"                            > - . y -.u.&.J c c F $.t.c.c.*.r r -.b.c.u.4.L t r F +.5.5.O.F u :                                 ",
"                        . > c u @ t -.j.u.8.,.,.8.t.h.x.c.&.r r &.b.b.3.m y j G -.5.o.+.5.-.J j > .                             ",
"                        . * i i * w K -.-.-.-.-.&.*.$.*.*.K , w K &.-.K w : Z #.5.2.o.X.%.o.D u - .                             ",
"    . . . . . . . . . . . O - * . + w t y y y y t r r r t q O X q t t , . r o.8.+.o.4.%.m e , - . .                             ",
"    . o 5 0 9 9 9 9 9 9 9 9 9 9 0 0 9 < X . @ > r t t r r t y y t r t r , u P *.o.X.#.L t @ @ @ O .                             ",
"    . 5 Y / ^ ~ ~ ~ ~ ~ ^ ~ ~ ~ ~ / ~ U < * t Z X.&.$.%.*.&.-.-.%.%.*.X.N c y m &.*.m r t y u r @ .                             ",
"    . 8 Q .... ... . . . . . . . .' ] / 9 , Z @.6.u.f.s.t.w.q.t.s.d.y.6.@.Z > e L X.n r t y y e @ .                             ",
"    . q V { { { { { { { { { { { W } ' ^ 8 r o.8.O.#.y.y.@.P E @.r.r.#.O.6.o.r . w m o.E u * @ @ O .                             ",
"    . > n G G D S G A G S G S S S W  .^ 8 w K o.N S &.4.o.X.X.o.4.;.D N o.P y . . y 4.e.S w @ . . .                             ",
"    . > n G D D D G D D D G D G S W  .^ s + e r , r S +.4.e.w.4.+.D r > r y y e X y 3.v.w.L e .     . .                         ",
"    . > n H J D D D D D D D D D S W  .^ 0 . @ - - w i Z o.;.:.o.Z i e > - e i y @ y ,.n.m.2.u .     . .                         ",
"    . > n J D D D D D D J D D D G W  .~ 9 * u n m i e , r t y r > e c n n n v t @ y 3.n.m.7.u . . .     . .                     ",
"    . > n J J D D D D D D D D D G W ..~ 9 = v D A m r - - - - - - r n D D m x r , i X.3.4.X.i > > >     . .                     ",
"    . > n D D F D D J D D D D G D { ../ 9 = u m m n n n n n n n n n m n n x , , x b i t y i c n n i > . . .                     ",
"    . > n J J D D J D D D J H A m B ! T 1 O e t y u b n n m n n m c y y y e @ @ i c e @ . - n J D n e @ . .                     ",
"    . > n J D D D D D D J J H m r ; 5 5 X . + @ @ = - - : > , : > - @ @ * + . . - r x u @ > n D M v i e @ . . . . .             ",
"    . > n J J D F D D D D D m c e - - , t r q > : , r r 2 - - 2 r r , > - q r e @ > m n > - v N b c c u , @ . O - >             ",
"    . > n J J D D D D J J m r w c n b Z o.o.S b v Z o.o.A b b A o.o.D v v A O.L e > n n > - i n c c c x u e o - u x > .         ",
"    . > n J J D J D D A m i , q v D P o.,.*.K G L +.1.;.K G L o.,.&.K D L o.$.L e > n m ; @ y c c c c v b y * , m n > .         ",
"    . > n J J D J D J m r , r u x J >.,.P N n G -.<.E Z n D -.<.L N m D >.$.m w O > n m > @ y v c v v c b y - > n m , .         ",
"    . > n D J D D D J m r , r u c J -.,.P N n D -.<.P Z n J -.<.P M n D >.&.m q X > n m > @ e u j b v i u e @ > m n , .         ",
"    . > n J D D D D D D m i > q n J L O.,.&.K D P o.<.=.K D L +.,.*.K D L o.$.K e > n n , . @ , u b v u 2 + . > m n > .         ",
"    . > n J F D D D D H H m r w x b n A o.o.D b b A o.o.A b v Z o.o.A b v A +.P e > n m , . . @ r y y r @ . . > u c > .         ",
"    . > n J J D D D D J J D m i e - > , r y , > > 2 t r , - - 2 r r 2 > > w t e X > n m > .     * * - @     . O - >             ",
"    . > i m D D J D D D D J H M j 4 X . . . . . . . . + e e @ O e e + . . . . . - r c i > .     . . . .     . . . .             ",
"        > r m J D D D D J D G C ) R 5 . . . . . . . . e L L e 3 K L r . . . . - i c e >                                         ",
"        . > n J J D D D G J E [ ` T 5 . . X # < < # . u ,.-.t y -.>.y . # % % 3 j c > .                                         ",
"        . > n J D G G G G C | ` z 5 o . . $ a f d p # u >.-.t y -.>.y # p d g s e :                                             ",
"        . > i M C { W { W [ ` R 7 . . . . & f I l d % y >.-.t t -.1.y % d l l d % .                                             ",
"            - j ( .... ..._ k 7         . % f l l d % y >.>.t y >.,.y % d l l d % .                                             ",
"            . 7 R ~ / ~ ~ R 7 .         % 1 f l h d % e L K e e K L e % d l l g 1 $                                             ",
"                9 9 9 9 9 8         . # a g h h l d % @ e e @ + e e + & f l l h g a $ .                                         ",
"                . . . . . .         % 1 g l l l l f & . . . . . . O . & f l l h l g 1 %                                         ",
"                                . % a g l l l l l f & .             . & f l l l l h g a % .                                     ",
"                                . % p f f d f f f p $ .             . # p f f d d f g p $ .                                     ",
"                                . X # & % & % % % # X .             . X $ % % & % % & $ X .                                     ",
"                                . . . . . . . . . . . .             . . . . . . . . . . . .                                     ",
"                                                                                                                                ",
"                                                                                                                                "
};
