/* XPM */
static char *_0f948581a254097ff940aae6f50454d4HVsZKKiHg2TJJhQ[] = {
/* columns rows colors chars-per-pixel */
"64 64 108 2 ",
"   c None",
".  c #010000",
"X  c #0A0700",
"o  c #0D0A02",
"O  c #060709",
"+  c #06080B",
"@  c #0C0C0C",
"#  c #110700",
"$  c #150B01",
"%  c #1B0E01",
"&  c #1E1001",
"*  c #0D0E12",
"=  c #0F1013",
"-  c #151515",
";  c #1D1A11",
":  c #161718",
">  c #171818",
",  c #1A1A1B",
"<  c #271F04",
"1  c #341B02",
"2  c #211E15",
"3  c #2A1F15",
"4  c #2B2206",
"5  c #2C2309",
"6  c #382C07",
"7  c #30270A",
"8  c #342A0A",
"9  c #3B2F0A",
"0  c #3C300B",
"q  c #2A2015",
"w  c #1F2024",
"e  c #232324",
"r  c #2B2B2B",
"t  c #2E2F32",
"y  c #323232",
"u  c #353638",
"i  c #3B3B3B",
"p  c #442302",
"a  c #492602",
"s  c #4B2A09",
"d  c #5A2E02",
"f  c #5D3003",
"g  c #643403",
"h  c #743D04",
"j  c #463D22",
"k  c #5F4E17",
"l  c #7D4104",
"z  c #645118",
"x  c #45423E",
"c  c #444444",
"v  c #464749",
"b  c #47484A",
"n  c #4C4C4C",
"m  c #535353",
"M  c #5D5A52",
"N  c #5D5D5D",
"B  c #675E42",
"V  c #685F43",
"C  c #7C7359",
"Z  c #5D5E60",
"A  c #5F6062",
"S  c #5F6268",
"D  c #656566",
"F  c #6D6B65",
"G  c #646569",
"H  c #67686B",
"J  c #696969",
"K  c #747474",
"L  c #767778",
"P  c #7B7B7B",
"I  c #804304",
"U  c #866B19",
"Y  c #8A6F1A",
"T  c #8E721C",
"R  c #92751C",
"E  c #81785E",
"W  c #8B7F5A",
"Q  c #9F8430",
"!  c #A0842E",
"~  c #B79324",
"^  c #BA9524",
"/  c #BD9824",
"(  c #A58A36",
")  c #AA8E37",
"_  c #AE9032",
"`  c #B29333",
"'  c #E1B93D",
"]  c #F4C637",
"[  c #99874E",
"{  c #8D815C",
"}  c #A89351",
"|  c #BDA14A",
" . c #D5B040",
".. c #D9B441",
"X. c #838383",
"o. c #8C8C8C",
"O. c #949494",
"+. c #9B9B9B",
"@. c #A4A4A4",
"#. c #AAAAAA",
"$. c #B4B4B4",
"%. c #BCBCBC",
"&. c #C3C3C3",
"*. c #CECECE",
"=. c #D2D2D2",
"-. c #D9D9D9",
";. c #E7E7E7",
":. c #E9E9E9",
/* pixels */
"                                                                                                                                ",
"                                                                                                                                ",
"                                                    . . . . . . . . . . . . . . . .                                             ",
"                                                    r y t t y y y t t y y y r y y r                                             ",
"                                                . r L +.+.+.+.O.O.+.+.+.+.+.O.+.+.L r .                                         ",
"                                                r m #.=.=.*.=.*.=.=.*.=.*.=.=.=.=.#.m r                                         ",
"                                            . r L #.&.=.=.*.*.*.*.=.=.*.*.*.*.=.=.&.@.L e .                                     ",
"                                            . r +.=.*.*.*.*.*.*.*.*.*.*.*.*.*.*.*.=.=.#.N r                                     ",
"                                        . . . r +.=.*.*.*.*.*.*.*.*.*.*.=.*.*.*.*.=.=.&.#.P r .                                 ",
"                                        . + w N #.*.*.*.*.*.*.*.*.&.%.$.$.%.$.$.$.$.$.%.%.X.r .                                 ",
"                                        . e K #.&.*.*.*.*.=.=.=.=.%.O.P P E P X.X.P P X.X.D , .                                 ",
"                                        . y +.=.*.*.=.&.@.O.O.@.$.+.L D D D D D G G S G J n > .                                 ",
"                                        . t +.=.*.*.=.#.m r r c J P F J D J D D J J J J J n - .                                 ",
"                                        . r +.=.=.&.$.E c e - , i n n n n n n n n n n n n i - .                                 ",
"                                        . t +.=.=.@.m b X.o.N i e - - - - - - - : > > - - = X .                                 ",
"                                        . y +.-.=.+.e r +.&.+.D r - - - - > > - . . = > - - O .                                 ",
"                                        . r +.=.=.O.r r +.=.&.+.S n b n n n n i = = i m n i - .                                 ",
"                                        . y +.=.=.@.m c P #.&.&.+.E X.P K F H n - - n J K n : .                                 ",
"                                        . t +.=.=.&.#.P c n #.*.%.$.$.@.L J J n - > n H J n : .                                 ",
"                                        . y +.=.*.=.=.#.m c P #.&.=.=.$.P A D n - - n J J n , .                                 ",
"                                        . t +.=.=.*.*.&.#.P v m #.=.=.$.P G J n > - n F J n - .                                 ",
"                                        . e K #.&.=.*.*.=.+.r e +.=.=.%.o.L J n - > n K P N 2 .                                 ",
"                                    . . . O , M #.=.*.*.=.+.e r O.-.*.&.%.@.P n : : b E @.o.r .                                 ",
"                                    - , r r : y L #.&.=.=.@.m v P #.&.=.=.$.X.b = = b o.%.+.y .                                 ",
"                                . - u A o.o.N j u m #.=.=.&.#.P v m @.=.=.%.X.c = = c X.%.+.y . . .                             ",
"                                - y J O.$.#.O.A r t L #.&.=.-.+.r r +.=.=.%.O.H c v F +.&.@.t X - >                             ",
"                            . - i J @.#.o.o.#.+.G i y N #.-.-.+.t r +.=.=.*.&.#.@.@.#.&.*.+.t = i i : .                         ",
"                            . * i D o.O.o.o.#.#.O.Z : , K +.@.K w , K +.+.+.+.+.+.+.@.@.+.K e * i i - .                         ",
"                            . O * 2 e m +.#.o.o.$.o.e X w r r q O X 2 t r r t t t y y y t e + . * * . . . . . . . . . . . .     ",
"                            . O @ @ @ y P O.o.X.O.P u , e t r t y y t r t r t e > * . X < 8 0 0 9 9 0 0 9 9 9 9 9 0 0 5 o .     ",
"                            . @ e y y r r m +.+.m y c Z X.+.O.+.+.+.+.+.+.O.+.X.Z t + < U ^ ^ ^ ^ ^ ^ ^ ~ ~ ~ ~ ~ ^ ^ Y 5 .     ",
"                            . @ r u y y r n X.L e : Z O.$.&.*.*.&.$.$.%.*.*.&.$.O.Z w 0 ^ ] '  . . . . . . . . . .....Q 8 .     ",
"                            . O @ = + y X.o.m w X r o.$.O.O.&.&.O.P P O.%.&.O.O.$.o.e 9 ^ ' } W W W W W W W W W W { { B 2 .     ",
"                            . . X O e D %.#.y . . y P o.Z Z +.#.O.E P o.#.+.Z Z o.L w 8 ~  .W Z S G G G G J G G G D G n : .     ",
"                        . .     . e P $.=.@.y X e y t e > r G o.#.%.%.#.o.G t , r w + 9 ~  .W G G D G G D D D D G D H n > .     ",
"                        . .     . y #.:.:.@.y + y i w - - e i Z o.@.+.o.Z i w : - * . 0 ~  .{ D G D D D D D D D D D J n > .     ",
"                    . .     . . . y #.:.:.@.y * y n n n n j e , r y y r , w i m n u * 9 ^  .W S G D D D D J D J D J J n > .     ",
"                    . .     > > - i X.#.@.X.i 2 r i m D D n t : - - - - : r n D D v - 9 ^ ..W H G D D J D D D D D J D n > .     ",
"                    . . . - i m n n i y y i n i w 2 i m n m m n n n n n n n m n m u * s / ..W H D D D D D D D D D J J n > .     ",
"                    . . + e n D F n - . @ e c i * O e y y u c n n n n m n c i t y w + < Y ! B m Z J D D D J D J D J D n > .     ",
"            . . . . . @ e i c m J n - = u c r = X . X @ @ = - - > > > : - - @ * @ @ . X < 8 2 r m J J D D D D F D J D n > .     ",
"            - - O O + , i c c n m v - > m n > X e y w - > , r r 2 : : , r r 2 - > 2 r t , = = e j m D J J D D D D J J n > .     ",
"        . > i i - o e i x c c c n i @ , m m - e L o.D c n D o.o.N v b A o.o.N c b A o.o.A b n i w t m J J D D D D J J n > .     ",
"        . > m m - = y b c c c c v y @ > n n - e L +.o.L D K O.@.O.L D K +.@.O.L D K +.#.o.P J n w , i M A D D J D F D n > .     ",
"        . , n m > * y c c c c c c y = , n m > X w m +.@.D n N P @.+.F n N L @.@.D n Z P #.+.J c u r , r m J D D D J D n > .     ",
"        . > n m , + e i j c c x i e o > m n > O 2 m +.+.D n N P @.@.J n N L @.@.J n Z E @.@.H c u t , e m J D D D J J n > X     ",
"        . , m m , . + , i b c i , O . , m n > e K +.o.L D K +.@.O.L F K +.@.O.L D K +.@.o.P H b e , i m A D D D D J J n > .     ",
"        . > i i : . . * r u u e = . . , n m - e P o.D n c D o.o.N c c A o.o.N b b D o.o.S n n i e r m H J J D D D J J n > .     ",
"            - - O .     @ - @ -     . > m m > + e t , > > w r e 2 - - , r t 2 - > e r r , - - e i m D J H D D D D J J m > .     ",
"            . . . .     . . . .     . - i c e - X . . . . + e e + O e e + . . . . . . . . X 4 j M H J J D D D J J A m i - .     ",
"                                        - e c i - . . . . e K K e e K L e . . . . . . . . 5 R ) C G G D D D D D J m r -         ",
"                                        . - c x 3 % % $ X y @.@.t y @.@.u . # % & $ X . . 7 T ` [ E D G G D G G J n - .         ",
"                                            : 3 s d f p # y @.+.t y +.@.u # p g f p $ . . o 5 z `  .E G G G J J F n - .         ",
"                                            . % d I I d $ y @.+.y t +.@.y $ d l I f & . . . . 7 R ( [ W W W { C M i - .         ",
"                                            . % d l l d $ u @.@.y y @.@.u $ d l l f % .         5 k ) .. . ...( j :             ",
"                                            % 1 g l l d % e L K q e K K e % d l l f 1 %         . 7 R ^ ^ ^ ^ R 8 .             ",
"                                        . $ a g h l l d % @ e e + @ e e * % f l h h g a $ .         8 9 9 9 9 8                 ",
"                                        % 1 g I l l l f & . . . . . . . . % f l l l l g 1 %         . . . . . .                 ",
"                                    . % a g h l h l l f % .             . % d l l l l h g a % .                                 ",
"                                    . $ p f f f d f f p $ .             . $ p f f f f f f p $ .                                 ",
"                                    . X $ & & % % & % $ X .             . X $ % % % & % & $ X .                                 ",
"                                    . . . . . . . . . . . .             . . . . . . . . . . . .                                 ",
"                                                                                                                                ",
"                                                                                                                                "
};
