/* XPM */
static char *f909e6184ceb4f428ac260ca7a0aa4f65BEWAbBEXzLdwSG0[] = {
/* columns rows colors chars-per-pixel */
"64 64 64 1 ",
"  c #020202",
". c #080707",
"X c #0B0B0B",
"o c #100F0F",
"O c #11100F",
"+ c #110F10",
"@ c #131313",
"# c #191718",
"$ c #1B1B1B",
"% c #201F1F",
"& c #21201E",
"* c #232323",
"= c #292827",
"- c #2B2B2B",
"; c #302E2F",
": c #323131",
"> c #3F3F3F",
", c #454545",
"< c #4C4C4C",
"1 c #504F4E",
"2 c #52514F",
"3 c #545454",
"4 c #585757",
"5 c #595758",
"6 c #5C5C5C",
"7 c #605E5F",
"8 c #62615F",
"9 c #615F60",
"0 c #636363",
"q c #686666",
"w c #6A6967",
"e c #696768",
"r c #6C6C6C",
"t c #706E6F",
"y c #72716F",
"u c #716F70",
"i c #737373",
"p c #787676",
"a c #7A7977",
"s c #797778",
"d c #7C7B7B",
"f c #807E7F",
"g c #81807E",
"h c #817F80",
"j c #858484",
"k c #888786",
"l c #898987",
"z c #898788",
"x c #8B8A8A",
"c c #908E8F",
"v c #92918F",
"b c #918F90",
"n c #949494",
"m c #989796",
"M c #9A9997",
"N c #999798",
"B c #9C9C9C",
"V c #A09E9E",
"C c #A1A19F",
"Z c #A19FA0",
"A c #A3A3A3",
"S c #A8A6A7",
"D c #A9A7A8",
"F c #A8A8A8",
/* pixels */
"AAAAASZAAAi3.  o9iBAFFASAZSNi6.              @qrrtBZAFAFAAFnr6X ",
"AAAAZZZZABi4+. X9inCAAZZZSZnq3. Xoo+XX..XX   o5qrtNSAABBFAAni0X ",
"ZSSBipxxxxie7<.X9ridxccbZZh9#o @sxxxxj6563X   X$9yBAABiiAFcxBjX ",
"SZNcruzzzzirr6.X<334reeudd9,   @nASSSBpist=@   X6rcBABddnBxxBgo ",
"SZprrujzxjrrr6X .. .....XX.    @bAAAAZxxBBi3.  o0rrdZAABiyjjr6o ",
"zzutuujjxjirr6X     ++#$%%%#@o @bSAZZBxnBBp4   X0rriBVABiyjhr6o ",
"o@7ujzzzjzzhr6.    #9rnNbbNbq3.@bSAZxxjjxzi3.  o0yrijjxxjzzhr6X ",
" .6ixxcxxxxjt6@X  o=udZZZZZBp9.@bSAVxxzjzjp4.  o30eijxjjzxzht6. ",
" .6dCZZZZBxhrr04X.<rBAZSZZccBjX@bSAZzjzxxxBd.   X@6ijxjjzjxgi6X ",
"X@6iZZBCZBxhrrq6X.4iASZZBBxcAjX@bZZBzzzzzxBfX XX .3rjjjjjxjhr3X ",
"xj*=tpiiiiiir6$X X6dVVxxxxxcAxoXepxxxjiihjd9 #hdo o=rpzxcci6#O  ",
"SN#o16rrrrrry6X  .<qnncxzxjxBhXo9uhzzziihh6, $BN:% @26errr6>    ",
"SN#  #wirrrti9X   .%esZZxzzfi6XX9uhzzhzzxj$  $nABc$  .......    ",
"AN:@ o49rr6662X oo $euNBjjjdt6.X39hzhhjzjd@  $NSAB:$$#        @@",
"SZNpX .@0r# X  X59o#etuiurrrr6. .+9uuuuruq@  $NAAANnmdo      @60",
"VVAj#o X46o @@@%rr+@5999999902.  .39999974o  $nCZAZZFx$X     @wi",
"usNne3. Xo %jbmnZb$ XXXo@OXXOX    XoXXooXX   $hxxxZAFN03@    $vB",
"upVNp9X   .=VZZZAn*.oXXX  XXOXX.X.        XX @sjxxBAFBi0@X ..*nA",
"NNSZVjX  X<wZZsdZVq0zxcd@Xixxj6663X      .iy.@wiBAccANrr63X@30xx",
"SSASSxX  X0hNbuuVZfjZAFn@XxFFBddst=@  $$*-nj.@0inMxxBndipr@$rplx",
"SSAAAx+  XzBiieiZAZZZZFn@oxFAAAACBr3.@6rNCAj.@0rrrjjxxAAxd@$hjxj",
"SSBNVh+  oxNdpisZAAZBBAn@XacBBBBAZp3X@wsZFFh.o37qrjxxxBBxg@$jzxx",
"AZpri9.  oxZBZVZAAABidZn@ X*qrraZAp3 $nAAAFjX .#0inNxxxxjd@$jxjj",
"ZNprr6.  XxFBBFFAAABssZn@  $0rriBBi3 $NAAAFj#X X9iBBxjjjja@$hxjj",
"iiNni7.  OzNidZAAAAABBAn@  $wrriiir4 $BFFAZn61XX6iBVxxxjiq@$wyjx",
"rrNNi9X  @jnipBZAFFAAAAc@  @90q00001 $NAZZBnr6Xo4wnndddiq6@@6wjx",
"rriur6X  X0irrpdBFAAABdwo   X@@XO@@o @eiiiair4X X@@$@@@@@@..X*ei",
"rrrrw5X  X6rrrrinnBBnx6<X %******$   O<3wryrr4X $*******@@   @0r",
"rrrtr6.  .6iwwerrriir6X. XjBnBVVBx#    @0irrr6X@xABBBBBNr7o  @0r",
"46666<.  .<0errreerrr3X.#*xZBBAAZn-O@o X26446<.@nABBBZAZdr*X @36",
"..X.X.    .$qrtrrrrrr6X@jnxxxxxxAZr002X XXXX.. @nBiiidBZABr<  X.",
"           @660000060<X@vAxxxxzzBBdii9X   XXXX@*nBdiidBBZCd6.   ",
"            XooXooO@XX @nFxxAZxjiiNVZjX  .296ecnAACBZVzxxxBd.   ",
"XXXXoX@OXX    XX    XXX$nAxxFZxjiinZAxO  .9irdZAZAAAZZzzhxVf.   ",
"66gvljxxxj@  @fdo  &xxpajxxcZZxxBBdid0X  ojBBnxxxxxcxczxchh7.   ",
"adCSAAAABn$  $Nn:& $hjjhdjjcnnxxBBaw4<.  ohBZBvczzcchzzzhxu5..$$",
"CCCSSCABi0O  $mSCc# X$0riijjtijxzzjrX.   X9dAZZZccVBzjxzjji5 @sj",
"CCCCSACBar@  $nCAB:@ O<6rijjrijxjjzr  $$ X<rNBBNzzNNzzzzhd0, #dx",
"FFCCAVvcBn$  @hxAABi. X@0idjjjzzxjxy #cx@ .%wriytthzzzhhpr$  @dz",
"CCCCVBxxAN$  @dzZAZdX  X30djjjjljjd0#=Bv@  @qrrrrtfhjjhhue@ @=hx",
"vlllvvglCN$  @0ijza6.   X@0irritir$-xvxdo  #errrtttuuuutr9+%xNZZ",
"lllllljlBn$  O0ihhr1     .4q0000q6X%BBxa$X @0q0090rtttqq75#;ZDZZ",
"gllllllxvj@  @0rir*O      @@@@oO@@ $idxxxd@ @@@@+#7rt7%@o$pbZSSZ",
"lllljljgt0@  X<34<X $$&**&         @16rinv-@  #@ .,55,. +%zZZZSS",
"ljgllgy8@     ..X  @7rnBZc$          ..@rpw1 @76X .. . o7ehcZZDD",
"glljjg61X  .$$$$$$$-rdBSAB=X  @@##@@@o X40r3 @rr=$$@   oqfhcZZZZ",
"vgljy6OX   *xBNNnMNBZAZAABi2 O6wcvr003. .@76.$nBnnBp. .@cVchxccx",
"llgp81. @@ *xvAABCZZAZBZCBd6 @0iVZdii0@o .3< $NAAACj#X +bZcchchz",
"lg&oXX Ohx@.@-NZllllvlxxxxi3.@0iCCCCBvw3X XX $MFAAbj03.@cAxjxcjj",
"gp@ XXX*nB*X #cBvlglllkkkli3 @0pCCCCCMaqX   X&mCAZxfq3.@cCcjxxjj",
"#@ $jxxxVZnr.@ydMBvllljkxzi3.@0iCCadCCMlO  &lxxxxxp6@@ @nAvxxjxx",
"  $>ZZBBBBFjXX19MCvlllljjhr3 @9iMMiaMBCv=# &MMkjhfu3   @zNzjjjjz",
" XjCFByrjxAj. .$nCvllljjyrr4 @0rgvggyiCBy8O#qijkirr3.  X0irijjxx",
" oxSANiixxAj*@ @vSlgjljjyw6< @0rgglvydCBgyO@qiggir6,X  X360idhjj",
" olBxxjjjxBBBhO@vCxljlxjr0$. @qilkllkxAAVv$@qrrrrq$.    .@6rrirr",
" XlBjxcxxxBVFxO@gvjlllxli0@  @qikxxlxxZAAn$@60rr04X   @O .100069",
" XxZxcZBxxAAAxX O$8aCACBi0@  @9tBAZBzzxxAN$ X%q0$X   $jjO XXOOoX",
" XjBxxBBxxAABx@X .2rMMnvq5X  @4qvMCBjjjzBn*  o64X XXX*Bn%oX.    ",
" o0dzjssjxxxxj63X o@$$##@O    O@$*riiiiipi0,  @@ Xpxjjxxzj0<    ",
" .<0ddrrdjxxxjy6X  .&&&&**.       ,336rrrrr3   .&-cFAVxxZZj9.   ",
"   %etrriiBBxxi0X  &vBNNCb$       .X.@0wwrt4   @xBZAFAxxZASjX   ",
"   @366469fjir63X  *BABBCN-#$$@oO@   o14669<X O*xZCZAVxxBZZhX   ",
"    ....X.XXXoX.   *MCcxxjfjnveq06@   ....X. @6wjxxxxxjzxxxw.   ",
"                   *MBcxjjjcZBirrq@          @0rjzxzzzjjzxje.   "
};
